<svg width="243" height="243" viewBox="0 0 243 243" fill="none" xmlns="http://www.w3.org/2000/svg">
<path d="M83.9815 53.3883V75.9993C83.9815 80.1619 80.607 83.5364 76.4445 83.5364H53.8334C49.6708 83.5364 46.2964 80.1619 46.2964 75.9993V53.3883C46.2964 49.2257 49.6708 45.8513 53.8334 45.8513H76.4445C80.607 45.8513 83.9815 49.2257 83.9815 53.3883Z" stroke="#0D438B" stroke-width="15.9999" stroke-linecap="round" stroke-linejoin="round"/>
<path d="M46.2964 121.222H83.9815" stroke="#0D438B" stroke-width="15.9999" stroke-linecap="round" stroke-linejoin="round"/>
<path d="M159.352 121.222V158.907" stroke="#0D438B" stroke-width="15.9999" stroke-linecap="round" stroke-linejoin="round"/>
<path d="M121.667 196.592H159.352" stroke="#0D438B" stroke-width="15.9999" stroke-linecap="round" stroke-linejoin="round"/>
<path d="M121.667 121.361L121.792 121.222" stroke="#0D438B" stroke-width="15.9999" stroke-linecap="round" stroke-linejoin="round"/>
<path d="M197.037 121.361L197.162 121.222" stroke="#0D438B" stroke-width="15.9999" stroke-linecap="round" stroke-linejoin="round"/>
<path d="M121.667 159.046L121.792 158.907" stroke="#0D438B" stroke-width="15.9999" stroke-linecap="round" stroke-linejoin="round"/>
<path d="M197.037 159.046L197.162 158.907" stroke="#0D438B" stroke-width="15.9999" stroke-linecap="round" stroke-linejoin="round"/>
<path d="M197.037 196.731L197.162 196.592" stroke="#0D438B" stroke-width="15.9999" stroke-linecap="round" stroke-linejoin="round"/>
<path d="M121.667 83.6759L121.792 83.5364" stroke="#0D438B" stroke-width="15.9999" stroke-linecap="round" stroke-linejoin="round"/>
<path d="M121.667 45.9908L121.792 45.8513" stroke="#0D438B" stroke-width="15.9999" stroke-linecap="round" stroke-linejoin="round"/>
<path d="M83.9815 166.444V189.055C83.9815 193.218 80.607 196.592 76.4445 196.592H53.8334C49.6708 196.592 46.2964 193.218 46.2964 189.055V166.444C46.2964 162.281 49.6708 158.907 53.8334 158.907H76.4445C80.607 158.907 83.9815 162.281 83.9815 166.444Z" stroke="#0D438B" stroke-width="15.9999" stroke-linecap="round" stroke-linejoin="round"/>
<path d="M197.037 53.3883V75.9993C197.037 80.1619 193.663 83.5364 189.5 83.5364H166.889C162.726 83.5364 159.352 80.1619 159.352 75.9993V53.3883C159.352 49.2257 162.726 45.8513 166.889 45.8513H189.5C193.663 45.8513 197.037 49.2257 197.037 53.3883Z" stroke="#0D438B" stroke-width="15.9999" stroke-linecap="round" stroke-linejoin="round"/>
<path d="M197.037 8.1662H234.722V45.8513" stroke="#0D438B" stroke-width="15.9999" stroke-linecap="round" stroke-linejoin="round"/>
<path d="M197.037 234.277H234.722V196.592" stroke="#0D438B" stroke-width="15.9999" stroke-linecap="round" stroke-linejoin="round"/>
<path d="M46.2964 8.16614H8.61133V45.8512" stroke="#0D438B" stroke-width="15.9999" stroke-linecap="round" stroke-linejoin="round"/>
<path d="M46.2964 234.277H8.61133V196.592" stroke="#0D438B" stroke-width="15.9999" stroke-linecap="round" stroke-linejoin="round"/>
</svg>
