<svg width="170" height="227" viewBox="0 0 170 227" fill="none" xmlns="http://www.w3.org/2000/svg">
<path d="M76.6511 222.048C12.7975 129.025 0.945068 119.478 0.945068 85.2912C0.945068 38.4622 38.7221 0.5 85.3227 0.5C131.923 0.5 169.7 38.4622 169.7 85.2912C169.7 119.478 157.848 129.025 93.9943 222.048C89.8039 228.131 80.841 228.13 76.6511 222.048ZM85.3227 120.621C104.74 120.621 120.48 104.803 120.48 85.2912C120.48 65.7791 104.74 49.9615 85.3227 49.9615C65.9057 49.9615 50.1654 65.7791 50.1654 85.2912C50.1654 104.803 65.9057 120.621 85.3227 120.621Z" fill="#0D438B"/>
</svg>
