<svg width="227" height="227" viewBox="0 0 227 227" fill="none" xmlns="http://www.w3.org/2000/svg">
<path d="M0.0453732 226.11L15.3304 169.944C5.25876 152.679 -0.03268 133.043 0.000151858 113.055C0.000151858 50.6147 50.6148 0 113.055 0C175.495 0 226.11 50.6147 226.11 113.055C226.11 175.495 175.495 226.11 113.055 226.11C93.0758 226.142 73.4481 220.855 56.1884 210.791L0.0453732 226.11ZM72.2535 60.0096C70.7936 60.1002 69.367 60.4847 68.0592 61.1401C66.8328 61.8346 65.7133 62.7028 64.7354 63.7178C63.3787 64.9953 62.61 66.1032 61.7847 67.1772C57.6063 72.6151 55.3587 79.2901 55.3971 86.1479C55.4197 91.6875 56.8668 97.0803 59.1279 102.123C63.7518 112.32 71.3604 123.117 81.411 133.122C83.8304 135.53 86.1932 137.95 88.737 140.199C101.211 151.182 116.077 159.103 132.15 163.33L138.583 164.314C140.674 164.427 142.766 164.269 144.869 164.167C148.161 163.997 151.376 163.106 154.286 161.555C156.163 160.561 157.045 160.063 158.616 159.068C158.616 159.068 159.102 158.752 160.029 158.051C161.556 156.92 162.494 156.118 163.76 154.795C164.699 153.823 165.513 152.681 166.134 151.381C167.016 149.538 167.898 146.022 168.26 143.094C168.531 140.855 168.452 139.634 168.418 138.877C168.373 137.667 167.367 136.412 166.27 135.881L159.69 132.93C159.69 132.93 149.854 128.645 143.851 125.909C143.218 125.633 142.54 125.476 141.85 125.446C141.077 125.366 140.295 125.453 139.558 125.701C138.821 125.949 138.145 126.351 137.577 126.882V126.859C137.52 126.859 136.763 127.503 128.589 137.407C128.12 138.037 127.473 138.514 126.732 138.776C125.992 139.037 125.189 139.073 124.428 138.877C123.692 138.68 122.97 138.43 122.269 138.131C120.867 137.543 120.381 137.317 119.42 136.898L119.364 136.876C112.896 134.052 106.907 130.238 101.614 125.57C100.189 124.327 98.8667 122.97 97.51 121.658C93.0622 117.399 89.186 112.58 85.9784 107.323L85.3114 106.249C84.8323 105.527 84.4449 104.749 84.1582 103.931C83.7286 102.269 84.8479 100.935 84.8479 100.935C84.8479 100.935 87.5951 97.9282 88.8726 96.3002C89.9364 94.9472 90.9288 93.5396 91.846 92.0832C93.18 89.9352 93.5983 87.7306 92.8974 86.0235C89.7318 78.2905 86.4533 70.5915 83.0842 62.949C82.4172 61.434 80.4387 60.3487 78.6412 60.1339C78.0307 60.0661 77.4202 59.9982 76.8097 59.953C75.2914 59.8776 73.77 59.904 72.2535 60.0096Z" fill="#0D438B"/>
</svg>
